# xmcd
#
# Track frame offsets: 
#        150
#        3337
#        28507
#        48364
#        83135
#        108345
#        132969
#        148643
#        177027
#        197704
#        227421
#        249205
#
# Disc length: 3751 seconds
#
# Revision: 0
# Processed by: cddbd v1.5.2PL0 Copyright (c) Steve Scherf et al.
# Submitted via: ExactAudioCopy v0.99pb3
#
DISCID=8c0ea50c
DTITLE=George Porter Jr. - It's Life
DYEAR=2007
DGENRE=Funk
TTITLE0=I've Been Thinking
TTITLE1=All I Do Everyday
TTITLE2=Don't Turn Your Back
TTITLE3=Here But I'm Gone
TTITLE4=I Get High
TTITLE5=It's Life
TTITLE6=Lonesome and Unwanted People
TTITLE7=Out In The Country
TTITLE8=She Said
TTITLE9=The Blues I Love
TTITLE10=Waterfall
TTITLE11=We May Never Pass This Way Again
EXTD=
EXTT0=
EXTT1=
EXTT2=
EXTT3=
EXTT4=
EXTT5=
EXTT6=
EXTT7=
EXTT8=
EXTT9=
EXTT10=
EXTT11=
PLAYORDER=
